:SAMPLES-PER-SECOND 30
:FULLY-SPECIFIED
:DEGREES
222
root  -17.634 36.9163 5.51372 -102.681 -72.5572 100.191
RightUpLeg  -17.3245 -2.95543 -42.9556
RightLeg  32.8031 -31.4649 -20.088
RightFoot  18.7988 -1.53607 6.14274
RightToes  6.35927e-011 1.30204e-014 -6.03759e-014
Spine  19.1049 3.36503 12.1288
Spine1  -7.47732 6.20957 -11.9436
HEad  8.02485 4.09411 -17.3825
LeftShoulder1  1.27516 -1.57016 -18.5615
LeftArm  -31.9891 21.3257 -43.5208
LeftForeArm  135.177 -81.6622 -94.7252
LeftHand  0.840828 7.45478 44.2291
RightShoulder  0.58951 -0.266861 11.1108
RightArm  2.06305 -10.2191 58.4307
RightForeArm  159.211 79.9741 122.699
RightHand  0.376138 -7.72502 -17.2754
LeftUpLeg  -10.2391 11.8483 -6.12013
LeftLeg  34.8559 -1.60097 -0.808601
LeftFoot  -13.8417 -0.30795 -17.4524
LeftToes  7.40077e-010 7.2695e-011 -6.03601e-011
223
root  -17.3236 36.466 6.52517 -109.947 -73.1302 107.446
RightUpLeg  -21.814 -4.85348 -42.2215
RightLeg  36.4122 -28.0966 -20.5868
RightFoot  21.0923 -1.53794 5.79004
RightToes  6.35927e-011 1.30204e-014 -6.03759e-014
Spine  21.0074 2.93592 11.7824
Spine1  -7.3026 6.06143 -11.7576
HEad  6.63402 0.187443 -16.952
LeftShoulder1  1.38485 -1.84788 -19.36
LeftArm  -30.0569 22.059 -46.3435
LeftForeArm  129.676 -81.5701 -91.9257
LeftHand  0.42059 7.68134 23.204
RightShoulder  0.586377 -0.32023 11.3278
RightArm  0.476576 -10.2403 58.0536
RightForeArm  154.79 80.7413 115.681
RightHand  0.118826 -9.86735 -4.06753
LeftUpLeg  -12.6893 11.6081 -6.55054
LeftLeg  39.4935 -0.758795 -0.260414
LeftFoot  -17.3169 -0.812138 -17.3598
LeftToes  7.40077e-010 7.2695e-011 -6.03601e-011
224
root  -17.0118 36.0227 7.23811 -121.369 -74.1559 119.01
RightUpLeg  -28.6515 -6.54191 -38.3536
RightLeg  43.7322 -20.1038 -19.5044
RightFoot  20.6074 -1.45933 5.59139
RightToes  6.35927e-011 1.30204e-014 -6.03759e-014
Spine  22.9447 2.66566 10.8689
Spine1  -7.0918 5.84277 -10.1432
HEad  4.71215 -1.1995 -15.8914
LeftShoulder1  1.52528 -2.21977 -20.2011
LeftArm  -27.3775 21.5531 -47.7159
LeftForeArm  119.95 -81.4506 -84.3874
LeftHand  -0.222101 11.8959 -0.228545
RightShoulder  0.663059 -0.0398958 12.1357
RightArm  -1.50086 -9.23178 57.1594
RightForeArm  149.673 81.1512 109.867
RightHand  -0.942121 -11.2361 14.8512
LeftUpLeg  -15.0196 12.2782 -5.15498
LeftLeg  44.1061 -0.239494 0.211603
LeftFoot  -20.7189 -1.34338 -17.7767
LeftToes  7.40077e-010 7.2695e-011 -6.03601e-011
225
root  -16.7821 35.5936 7.61703 -135.175 -74.0923 132.817
RightUpLeg  -36.5338 -8.59081 -32.6782
RightLeg  53.727 -11.8541 -17.13
RightFoot  18.8119 -0.896831 3.80681
RightToes  6.35927e-011 1.30204e-014 -6.03759e-014
Spine  23.9318 2.72473 7.99331
Spine1  -5.94576 5.42301 -7.75088
HEad  2.76983 -1.14326 -14.2687
LeftShoulder1  1.59643 -2.47885 -20.2398
LeftArm  -23.6452 19.8977 -48.5352
LeftForeArm  107.94 -81.0661 -77.7098
LeftHand  -3.06573 18.249 -25.6228
RightShoulder  0.721586 0.206255 12.4772
RightArm  -3.11874 -7.22582 57.5916
RightForeArm  135.025 81.5771 95.6864
RightHand  -2.57898 -13.3335 34.9705
LeftUpLeg  -16.5321 13.9222 -3.39967
LeftLeg  47.815 0.929768 1.5887
LeftFoot  -23.4471 -1.74773 -17.6834
LeftToes  7.40077e-010 7.2695e-011 -6.03601e-011
226
root  -16.6497 35.2792 7.71878 -144.918 -72.7047 141.95
RightUpLeg  -42.8314 -10.9693 -27.6459
RightLeg  63.1735 -7.51903 -16.4056
RightFoot  16.3313 -0.585692 2.86277
RightToes  6.35927e-011 1.30204e-014 -6.03759e-014
Spine  24.1568 2.91744 2.87068
Spine1  -4.65579 4.46723 -5.20053
HEad  2.04783 -0.655442 -12.2704
LeftShoulder1  1.67902 -2.88833 -19.7961
LeftArm  -18.3943 17.7812 -48.8552
LeftForeArm  89.4712 -80.1568 -67.2715
LeftHand  -7.34122 24.2008 -40.8563
RightShoulder  0.769113 0.447773 12.4831
RightArm  -4.33672 -5.59143 59.2107
RightForeArm  106.799 80.8239 64.6097
RightHand  -2.98155 -12.2604 45.2368
LeftUpLeg  -16.6298 15.3621 -2.23596
LeftLeg  50.0844 1.94687 2.99294
LeftFoot  -24.9972 -1.98795 -17.7238
LeftToes  7.40077e-010 7.2695e-011 -6.03601e-011
227
root  -16.6064 35.2368 7.62703 -150.133 -71.1109 145.847
RightUpLeg  -46.1211 -13.5699 -24.3703
RightLeg  68.7801 -6.05536 -17.4629
RightFoot  12.346 -0.784598 4.16949
RightToes  6.35927e-011 1.30204e-014 -6.03759e-014
Spine  24.3685 2.85389 -2.77895
Spine1  -4.54914 3.03854 -3.49934
HEad  3.19643 -1.28584 -10.3153
LeftShoulder1  1.86585 -3.62466 -19.6925
LeftArm  -12.4773 15.485 -47.9897
LeftForeArm  70.889 -78.7817 -57.1147
LeftHand  -10.9054 27.9087 -49.3982
RightShoulder  0.894171 0.9194 13.2921
RightArm  -6.19865 -5.72871 60.1765
RightForeArm  84.8951 77.6139 40.71
RightHand  -2.41373 -10.4904 47.897
LeftUpLeg  -14.8671 16.8416 -1.1603
LeftLeg  50.3742 1.8046 2.85136
LeftFoot  -25.2516 -2.11504 -18.4396
LeftToes  7.40077e-010 7.2695e-011 -6.03601e-011
228
root  -16.738 35.3862 7.25697 -154.453 -70.2474 148.592
RightUpLeg  -46.3192 -16.1813 -22.1305
RightLeg  70.2424 -5.44584 -17.2107
RightFoot  8.37172 -0.74506 4.56623
RightToes  6.35927e-011 1.30204e-014 -6.03759e-014
Spine  24.0037 2.26999 -7.67172
Spine1  -5.42976 1.36686 -3.42992
HEad  4.39223 -4.61497 -9.30292
LeftShoulder1  2.06082 -4.23747 -20.1809
LeftArm  -6.79427 13.0927 -46.2433
LeftForeArm  67.8506 -78.5343 -56.1748
LeftHand  -11.1827 26.4101 -53.8617
RightShoulder  1.08598 1.46123 15.132
RightArm  -8.45789 -7.63749 59.4168
RightForeArm  72.553 75.0079 33.1089
RightHand  -3.89949 -13.9434 47.5934
LeftUpLeg  -11.6626 18.5099 1.07668
LeftLeg  49.3111 0.792587 1.48821
LeftFoot  -24.7913 -2.1945 -19.6965
LeftToes  7.40077e-010 7.2695e-011 -6.03601e-011
229
root  -17.1264 35.5517 6.52394 -161.011 -70.4759 153.697
RightUpLeg  -43.5836 -18.35 -19.777
RightLeg  69.2769 -5.15512 -15.5373
RightFoot  8.0231 -0.249116 1.86195
RightToes  6.35927e-011 1.30204e-014 -6.03759e-014
Spine  22.0133 1.17083 -11.5749
Spine1  -5.9884 -0.389285 -4.25859
HEad  2.50309 -10.9153 -9.5724
LeftShoulder1  2.14291 -4.35252 -20.8841
LeftArm  -1.99731 11.6738 -44.7508
LeftForeArm  88.0361 -80.0684 -66.5463
LeftHand  -6.12444 18.273 -48.0899
RightShoulder  1.25463 1.787 17.1533
RightArm  -9.3575 -10.5476 57.3605
RightForeArm  67.6655 74.0486 31.3814
RightHand  -4.26906 -16.5742 39.5845
LeftUpLeg  -7.84814 18.6602 5.11936
LeftLeg  48.1045 0.246218 0.774362
LeftFoot  -24.278 -2.28568 -21.2187
LeftToes  7.40077e-010 7.2695e-011 -6.03601e-011
230
root  -17.6875 35.7306 5.50592 -172.256 -71.164 163.491
RightUpLeg  -38.0829 -19.7221 -16.5131
RightLeg  67.0496 -5.53611 -14.729
RightFoot  11.167 0.25472 -0.923338
RightToes  6.35927e-011 1.30204e-014 -6.03759e-014
Spine  18.9919 -0.010354 -14.4785
Spine1  -5.94252 -1.93032 -4.33189
HEad  -3.86068 -19.2437 -9.66582
LeftShoulder1  2.1774 -4.2698 -21.6627
LeftArm  0.998828 12.2855 -43.6694
LeftForeArm  123.717 -81.5929 -84.775
LeftHand  -0.507899 5.71258 -27.086
RightShoulder  1.39506 2.04208 18.7102
RightArm  -8.60469 -14.4174 54.7008
RightForeArm  70.8023 73.3602 28.993
RightHand  -1.41068 -12.2802 17.3903
LeftUpLeg  -3.72888 16.1892 10.7216
LeftLeg  46.997 0.933656 1.54037
LeftFoot  -23.5843 -2.32595 -22.7323
LeftToes  7.40077e-010 7.2695e-011 -6.03601e-011
231
root  -18.2597 36.0195 4.33979 171.939 -71.0884 177.739
RightUpLeg  -30.6875 -20.7774 -11.9752
RightLeg  63.7385 -6.88018 -15.3654
RightFoot  13.4545 0.0858779 0.0354711
RightToes  6.35927e-011 1.30204e-014 -6.03759e-014
Spine  16.5894 -0.893762 -16.4724
Spine1  -6.58562 -3.05711 -2.78564
HEad  -13.5399 -27.8323 -7.64756
LeftShoulder1  2.27721 -4.38217 -22.5808
LeftArm  2.14395 14.1774 -42.7507
LeftForeArm  164.25 -81.6816 -109.537
LeftHand  -0.541681 -3.48903 9.05974
RightShoulder  1.55603 2.44915 19.771
RightArm  -8.51718 -19.2547 51.607
RightForeArm  73.769 72.9136 27.4422
RightHand  0.105529 -6.3889 -17.5001
LeftUpLeg  0.795557 12.999 17.6496
LeftLeg  45.3117 2.05906 2.67844
LeftFoot  -21.9548 -2.11192 -23.8289
LeftToes  7.40077e-010 7.2695e-011 -6.03601e-011
